<?xml version="1.0" standalone="no"?>
<!DOCTYPE svg PUBLIC "-//W3C//DTD SVG 20010904//EN"
 "http://www.w3.org/TR/2001/REC-SVG-20010904/DTD/svg10.dtd">
<svg version="1.0" xmlns="http://www.w3.org/2000/svg"
 width="1088.000000pt" height="1088.000000pt" viewBox="0 0 1088.000000 1088.000000"
 preserveAspectRatio="xMidYMid meet">
<metadata>
Created by potrace 1.11, written by Peter Selinger 2001-2013
</metadata>
<g transform="translate(0.000000,1088.000000) scale(0.100000,-0.100000)"
fill="#000000" stroke="none">
<path d="M6718 9113 c-2 -5 -4 -114 -3 -243 l0 -235 -3355 0 -3355 0 -3 -3437
-2 -3438 5440 0 5440 0 0 1200 c0 953 -3 1200 -12 1201 -85 4 -208 2 -208 -4
0 -5 -5 -5 -10 -2 -9 5 -191 7 -480 5 -8 0 -117 1 -243 2 -125 2 -227 -1 -227
-5 0 -5 -5 -5 -10 -2 -10 6 -341 10 -365 5 -5 -1 -14 -1 -20 0 -5 1 -50 2 -99
1 -85 -2 -88 -1 -83 19 3 11 2 20 -1 20 -4 0 -6 78 -4 172 1 95 2 183 2 196
-3 345 -2 441 4 450 4 7 4 12 -1 12 -4 0 -8 81 -8 180 0 99 4 180 8 180 5 0 5
5 1 12 -4 6 -6 34 -5 62 1 28 2 56 2 61 -1 11 -1 290 -1 315 0 8 -1 112 -1
231 -1 119 1 221 5 227 4 7 4 12 -1 12 -4 0 -8 77 -8 170 0 94 4 170 8 170 4
0 4 7 -1 16 -5 9 -6 32 -2 50 4 19 5 34 1 34 -3 0 -5 82 -3 182 1 101 2 188 2
193 -3 220 -1 444 4 453 4 7 4 12 -1 12 -4 0 -8 81 -8 180 0 99 4 180 8 180 5
0 5 5 1 12 -4 6 -6 34 -5 62 1 28 2 56 2 61 -1 11 -1 290 -1 315 0 8 -1 112
-1 231 -1 119 1 221 5 227 4 7 4 12 -1 12 -4 0 -8 55 -8 122 l0 123 -1197 3
c-658 1 -1198 -1 -1200 -5z m-4304 -2875 c-6 -10 -4 -10 7 -2 8 6 43 9 79 7
36 -2 70 -3 75 -3 204 4 295 3 295 -3 0 -5 5 -5 12 -1 16 10 138 11 138 1 0
-4 10 -3 21 4 17 9 20 8 14 -2 -6 -8 -4 -10 5 -4 18 11 140 13 147 3 2 -5 10
-5 16 -1 16 10 287 10 287 0 0 -5 5 -5 12 -1 16 10 138 11 138 1 0 -4 10 -3
21 4 17 9 20 8 14 -2 -6 -8 -4 -10 5 -4 18 11 140 13 147 3 2 -5 10 -5 16 -1
16 10 287 10 287 0 0 -5 5 -5 12 -1 16 10 138 11 138 1 0 -4 10 -3 21 4 17 9
20 8 14 -2 -6 -8 -4 -10 5 -4 18 11 140 13 147 3 2 -5 10 -5 16 -1 16 10 287
10 287 0 0 -5 5 -5 12 -1 16 10 138 11 138 1 0 -4 10 -3 21 4 16 8 20 8 14 -1
-5 -9 -2 -10 11 -3 23 11 264 10 282 -1 6 -4 12 -3 12 2 0 4 21 7 48 5 26 -2
53 -4 60 -3 10 0 56 0 145 0 6 0 56 1 110 3 53 1 97 -1 97 -5 0 -4 10 -4 23 0
12 4 54 7 92 5 80 -3 72 -3 145 -2 30 1 66 1 80 0 14 -1 89 0 168 1 78 2 142
-1 142 -6 0 -5 7 -3 15 4 11 9 15 9 15 1 0 -7 5 -9 12 -5 7 4 73 8 148 8 l136
1 -1 -1040 0 -1040 -107 0 c-60 0 -108 -3 -108 -7 0 -4 -7 -5 -15 -2 -23 9
-305 10 -305 1 0 -5 -5 -5 -11 -2 -5 4 -54 6 -107 5 -53 0 -101 -1 -107 -1
-33 0 -253 1 -265 1 -8 0 -117 1 -243 2 -125 2 -227 -1 -227 -5 0 -5 -5 -5
-10 -2 -10 6 -341 10 -365 5 -5 -1 -12 -2 -15 -1 -18 7 -570 4 -570 -2 0 -5
-5 -5 -11 -2 -5 4 -54 6 -107 5 -53 0 -101 -1 -107 -1 -33 0 -253 1 -265 1 -8
0 -117 1 -243 2 -125 2 -227 -1 -227 -5 0 -5 -5 -5 -10 -2 -10 6 -341 10 -365
5 -5 -1 -14 -2 -20 -1 -5 2 -120 3 -255 4 l-245 2 -3 70 c-1 39 -2 76 -2 83 0
6 1 63 1 126 1 62 -1 118 -5 124 -3 6 -3 13 1 15 9 6 9 245 0 254 -4 3 -4 10
0 16 8 13 8 455 0 463 -4 4 -4 11 0 17 8 13 8 181 -1 195 -3 6 -3 13 1 15 9 6
9 245 0 254 -4 3 -4 10 0 16 3 5 6 103 6 216 0 195 1 221 13 221 3 0 2 -6 -2
-12z"/>
</g>
</svg>
